# AST/ASF file generated using VICON BodyLanguage
# -----------------------------------------------
:version 1.10
:name VICON
:units
  mass 1.0
  length 0.45
  angle deg
:documentation
   .ast/.asf automatically generated from VICON data using
   VICON BodyBuilder and BodyLanguage model FoxedUp or BRILLIANT.MOD
:root
   order TX TY TZ RX RY RZ
   axis XYZ
   position 0 0 0  
   orientation 0 0 0 
:bonedata
  begin
     id 1 
     name lhipjoint
     direction 0.561001 -0.76473 0.316963 
     length 2.4722 
     axis 0 0 0  XYZ
  end
  begin
     id 2 
     name lfemur
     direction 0.34202 -0.939693 0  
     length 7.59403  
     axis 0 0 20  XYZ
    dof rx ry rz
    limits (-160.0 20.0)
           (-70.0 70.0)
           (-60.0 70.0)
  end
  begin
     id 3 
     name ltibia
     direction 0.34202 -0.939693 0   
     length 7.89655   
     axis 0 0 20   XYZ
    dof rx
    limits (-10.0 170.0)
  end
  begin
     id 4 
     name lfoot
     direction 0.061296 -0.168409 0.98381   
     length 2.73287   
     axis -90 7.62852e-016 20   XYZ
    dof rx rz
    limits (-45.0 90.0)
           (-70.0 20.0)
  end
  begin
     id 5 
     name ltoes
     direction 1.53547e-011 -4.21984e-011 1   
     length 1.37057   
     axis -90 7.62852e-016 20   XYZ
    dof rx
    limits (-90.0 20.0)
  end
  begin
     id 6 
     name rhipjoint
     direction -0.559611 -0.765599 0.317323   
     length 2.46939  
     axis 0 0 0  XYZ 
  end
  begin
     id 7 
     name rfemur
     direction -0.34202 -0.939693 0   
     length 7.53712   
     axis 0 0 -20   XYZ
    dof rx ry rz
    limits (-160.0 20.0)
           (-70.0 70.0)
           (-70.0 60.0)
  end
  begin
     id 8 
     name rtibia
     direction -0.34202 -0.939693 0   
     length 8.12549   
     axis 0 0 -20   XYZ
    dof rx
    limits (-10.0 170.0)
 end
 begin
     id 9 
     name rfoot
     direction -0.066984 -0.184037 0.980634   
     length 2.67541  
     axis -90 -7.62852e-016 -20   XYZ
    dof rx rz
    limits (-45.0 90.0)
           (-20.0 70.0)
  end
  begin
     id 10 
     name rtoes
     direction -1.53549e-011 -4.21786e-011 1   
     length 1.34085   
     axis -90 -7.62852e-016 -20   XYZ
    dof rx
    limits (-90.0 20.0)
  end
  begin
     id 11 
     name lowerback
     direction -0.0522728 0.992594 -0.109658   
     length 2.05633   
     axis 0 0 0   XYZ
    dof rx ry rz
    limits (-20.0 45.0)
           (-30.0 30.0)
           (-30.0 30.0)
  end
  begin
     id 12 
     name upperback
     direction 0.00589338 0.999977 0.00335704   
     length 2.05845   
     axis 0 0 0   XYZ
    dof rx ry rz
    limits (-20.0 45.0)
           (-30.0 30.0)
           (-30.0 30.0)
  end
  begin
     id 13 
     name thorax
     direction 0.0292928 0.998059 0.0549487   
     length 2.09281   
     axis 0 0 0   XYZ
    dof rx ry rz
    limits (-20.0 45.0)
           (-30.0 30.0)
           (-30.0 30.0)
  end
  begin
     id 14 
     name lowerneck
     direction 0.0356368 0.980775 0.191858   
     length 1.84767   
     axis 0 0 0   XYZ
    dof rx ry rz
    limits (-20.0 45.0)
           (-30.0 30.0)
           (-30.0 30.0)
  end
  begin
     id 15 
     name upperneck
     direction -0.0227605 0.98931 -0.14404   
     length 1.89582   
     axis 0 0 0   XYZ
    dof rx ry rz
    limits (-20.0 45.0)
           (-30.0 30.0)
           (-30.0 30.0)
  end
  begin
     id 16
     name head
     direction -0.00932985 0.997511 -0.0698904  
     length 1.90213  
     axis 0 0 0   XYZ
    dof rx ry rz
    limits (-20.0 45.0)
           (-30.0 30.0)
           (-30.0 30.0)
  end
  begin
     id 17 
     name lclavicle
     direction 0.873442 0.479511 0.0846686  
     length 3.41193  
     axis 0 0 0   XYZ
    dof ry rz
    limits (-20.0 10.0)
           (0.0 20.0)
  end
  begin
     id 18 
     name lhumerus
     direction 1 -4.4897e-011 -5.62117e-018   
     length 5.59864   
     axis 180 -30 -90   XYZ
    dof rx ry rz
    limits (-60.0 90.0)
           (-90.0 90.0)
           (-90.0 90.0)
  end
  begin
     id 19
     name lradius
     direction 1 -4.48966e-011 -6.26295e-027   
     length 3.59542   
     axis 180 -30 -90   XYZ
    dof rx
    limits (-10.0 170.0)
  end
  begin
     id 20
     name lwrist
     direction 1 -4.48947e-011 -1.74096e-026   
     length 1.79771   
     axis 1.04567e-014 90 90   XYZ
    dof ry
    limits (-180.0 0.0)
 end
  begin
     id 21 
     name lhand
     direction 1 -4.49085e-011 -3.48469e-026   
     length 0.572014   
     axis 2.22196e-014 90 90   XYZ
    dof rx rz
    limits (-90.0 90.0)
           (-45.0 45.0)
  end
  begin
     id 22 
     name lfingers
     direction 1 -4.48884e-011 -6.96135e-026   
     length 0.461173   
     axis 4.44383e-014 90 90   XYZ
    dof rx
    limits (0.0 90.0)
  end
  begin
     id 23
     name lthumb
     direction 0.707107 -6.34976e-011 0.707107   
     length 0.662154   
     axis -90 45 -5.4397e-014   XYZ
    dof rx rz
    limits (-45.0 45.0)
           (-45.0 45.0)
  end
  begin
     id 24 
     name rclavicle
     direction -0.890242 0.443271 0.104786   
     length 3.46753  
     axis 0 0 0   XYZ 
    dof ry rz
    limits (-10.0 20.0)
           (-20.0 0.0)
  end
  begin
     id 25 
     name rhumerus
     direction -1 -4.48963e-011 -5.41723e-018  
     length 5.8094   
     axis 180 30 90   XYZ
    dof rx ry rz
    limits (-90.0 60.0)
           (-90.0 90.0)
           (-90.0 90.0)
  end
  begin
     id 26 
     name rradius
     direction -1 -4.48958e-011 -6.51059e-027   
     length 3.66953   
     axis 180 30 90   XYZ
    dof rx
    limits (-10.0 170.0)
  end
  begin
     id 27 
     name rwrist
     direction -1 -4.48975e-011 -1.74124e-026   
     length 1.83476   
     axis 1.04567e-014 -90 -90   XYZ
    dof ry
    limits (-180.0 0.0)
  end
  begin
     id 28
     name rhand
     direction -1 -4.49013e-011 -3.48326e-026   
     length 0.57843   
     axis 2.22196e-014 -90 -90   XYZ
    dof rx rz
    limits (-90.0 90.0)
           (-45.0 45.0)
  end
  begin
     id 29
     name rfingers
     direction -1 -4.49023e-011 -6.9669e-026   
     length 0.466345   
     axis 4.44383e-014 -90 -90   XYZ
    dof rx
    limits (0.0 90.0)
  end
  begin
     id 30
     name rthumb
     direction -0.707107 -6.34926e-011 0.707107   
     length 0.669581   
     axis -90 -45 5.4397e-014   XYZ
    dof rx rz
    limits (-45.0 45.0)
           (-45.0 45.0)
  end
:hierarchy
  begin
    root lhipjoint rhipjoint lowerback
    lhipjoint lfemur
    lfemur ltibia
    ltibia lfoot
    lfoot ltoes
    rhipjoint rfemur
    rfemur rtibia
    rtibia rfoot
    rfoot rtoes
    lowerback upperback
    upperback thorax
    thorax lowerneck lclavicle rclavicle
    lowerneck upperneck
    upperneck head
    lclavicle lhumerus
    lhumerus lradius
    lradius lwrist
    lwrist lhand lthumb
    lhand lfingers
    rclavicle rhumerus
    rhumerus rradius
    rradius rwrist
    rwrist rhand rthumb
    rhand rfingers
  end

#!OML:ASF H:\SkateBoarding\Project 1\Capture day 1\Session 1\Skater.ASF
:FULLY-SPECIFIED
:DEGREES
289
root 2.87474 16.0667 20.0841 21.6479 25.4981 5.44549
lowerback 9.72747 -3.4528 -3.15192
upperback -1.74989 -4.79512 2.89153
thorax -6.79291 -2.16478 5.55521
lowerneck -14.7896 -0.904084 0.407609
upperneck 23.0314 -0.817599 -2.01644
head 9.72436 -0.553553 -0.870186
rclavicle 2.06736e-014 1.03368e-014
rhumerus -1.83212 22.9625 -60.0331
rradius 47.079
rwrist -15.8292
rhand -41.4506 -1.09535
rfingers 7.12502
rthumb -14.3658 -30.5783
lclavicle 2.06736e-014 1.03368e-014
lhumerus 37.6176 -16.511 54.7079
lradius 75.3118
lwrist 28.4968
lhand -29.1032 1.9075
lfingers 7.12502
lthumb -2.45134 31.8732
rfemur -77.3597 -7.33656 12.8514
rtibia 87.809
rfoot -18.7315 22.0784
rtoes -8.40419
lfemur 31.0719 -17.2069 -10.257
ltibia -3.18055e-015
lfoot -10.6728 31.5785
ltoes 11.3928
290
root 2.83973 16.169 20.4355 21.4454 25.7883 5.47445
lowerback 9.89994 -3.49537 -3.11763
upperback -1.68612 -4.85533 2.81957
thorax -6.82519 -2.19649 5.47869
lowerneck -14.7577 -0.93197 0.343007
upperneck 22.9344 -0.867587 -1.9108
head 9.68424 -0.570049 -0.827631
rclavicle 1.72943e-014 4.77083e-015
rhumerus -1.08062 21.3041 -60.6373
rradius 46.4429
rwrist -15.4442
rhand -41.6353 -1.13476
rfingers 7.12502
rthumb -14.5438 -30.6049
lclavicle 1.72943e-014 4.77083e-015
lhumerus 39.0433 -16.3179 55.3893
lradius 74.6169
lwrist 28.4601
lhand -29.3173 2.08874
lfingers 7.12502
lthumb -2.65814 32.0519
rfemur -76.0946 -7.20018 13.2032
rtibia 87.2312
rfoot -19.6711 21.7056
rtoes -9.07399
lfemur 31.4787 -17.9992 -10.5731
ltibia 9.54166e-015
lfoot -7.35869 33.0239
ltoes 9.12603
291
root 2.80426 16.2692 20.7835 21.1971 26.0676 5.48838
lowerback 10.104 -3.52471 -3.08342
upperback -1.61087 -4.89813 2.74894
thorax -6.8652 -2.21936 5.40349
lowerneck -14.7209 -0.96421 0.286396
upperneck 22.8535 -0.90477 -1.8867
head 9.64869 -0.589106 -0.813291
rclavicle -5.62561e-014 3.89618e-014
rhumerus -0.397546 19.6431 -61.3297
rradius 45.8385
rwrist -15.1111
rhand -41.8616 -1.18427
rfingers 7.12502
rthumb -14.7618 -30.6386
lclavicle -5.62561e-014 3.89618e-014
lhumerus 40.3287 -16.2502 56.1655
lradius 73.9482
lwrist 28.5287
lhand -29.5582 2.31338
lfingers 7.12502
lthumb -2.89078 32.2735
rfemur -74.7962 -7.04643 13.5669
rtibia 86.6473
rfoot -20.5919 21.2972
rtoes -9.74636
lfemur 31.9269 -18.7656 -10.9363
ltibia -2.22639e-014
lfoot -4.8402 33.8442
ltoes 7.40036
292
root 2.76877 16.3683 21.1292 20.9127 26.3258 5.48439
lowerback 10.3328 -3.5397 -3.04615
upperback -1.53223 -4.9215 2.68084
thorax -6.91792 -2.23223 5.32866
lowerneck -14.6785 -0.998643 0.226525
upperneck 22.7929 -0.926356 -1.93232
head 9.61922 -0.609 -0.820782
rclavicle 3.95581e-014 9.54166e-015
rhumerus 0.219248 18.0322 -62.0837
rradius 45.2738
rwrist -14.8354
rhand -42.1153 -1.2391
rfingers 7.12502
rthumb -15.0063 -30.6753
lclavicle 3.95581e-014 9.54166e-015
lhumerus 41.4602 -16.3033 57.0154
lradius 73.3126
lwrist 28.6847
lhand -29.8309 2.5565
lfingers 7.12502
lthumb -3.15416 32.5129
rfemur -73.4681 -6.86766 13.9397
rtibia 86.0412
rfoot -21.4754 20.8648
rtoes -10.397
lfemur 32.4055 -19.4906 -11.352
ltibia 2.22639e-014
lfoot -3.12977 34.3507
ltoes 6.16972
293
root 2.73355 16.4674 21.4732 20.5973 26.5541 5.45731
lowerback 10.5771 -3.53738 -3.00851
upperback -1.45345 -4.92142 2.61877
thorax -6.98127 -2.23303 5.25805
lowerneck -14.634 -1.03387 0.165454
upperneck 22.7584 -0.931577 -2.04509
head 9.59845 -0.628876 -0.849506
rclavicle -7.65321e-014 2.06736e-014
rhumerus 0.776265 16.5184 -62.8704
rradius 44.7467
rwrist -14.6054
rhand -42.3895 -1.29285
rfingers 7.12502
rthumb -15.2704 -30.7092
lclavicle -7.65321e-014 2.06736e-014
lhumerus 42.429 -16.4738 57.923
lradius 72.7204
lwrist 28.9064
lhand -30.1261 2.79445
lfingers 7.12502
lthumb -3.43922 32.7465
rfemur -72.1108 -6.65205 14.3191
rtibia 85.3977
rfoot -22.3198 20.4098
rtoes -11.0096
lfemur 26.7595 -20.1822 -11.8337
ltibia 12.0661
lfoot -3.74922 28.9621
ltoes 5.35906
294
root 2.69905 16.5669 21.8164 20.2588 26.7612 5.40164
lowerback 10.826 -3.52127 -2.956
upperback -1.37982 -4.90046 2.56344
thorax -7.0555 -2.22355 5.18381
lowerneck -14.5862 -1.07018 0.0989457
upperneck 22.7522 -0.923367 -2.21044
head 9.58703 -0.648795 -0.894077
rclavicle 4.41302e-014 -3.18055e-015
rhumerus 1.27569 15.13 -63.6714
rradius 44.2505
rwrist -14.3966
rhand -42.6651 -1.34746
rfingers 7.12502
rthumb -15.5358 -30.7434
lclavicle 4.41302e-014 -3.18055e-015
lhumerus 43.2341 -16.7613 58.867
lradius 72.1775
lwrist 29.1746
lhand -30.4556 3.01302
lfingers 7.12502
lthumb -3.75739 32.9596
rfemur -70.7252 -6.40635 14.7109
rtibia 84.7039
rfoot -23.1143 19.9433
rtoes -11.5722
lfemur 23.7871 -19.5182 -11.4468
ltibia 18.2731
lfoot -2.58682 26.0103
ltoes 4.79774
295
root 2.66522 16.667 22.159 19.9053 26.9455 5.31555
lowerback 11.0694 -3.49024 -2.88898
upperback -1.31391 -4.85687 2.51509
thorax -7.13766 -2.20306 5.10521
lowerneck -14.5433 -1.10716 0.0274655
upperneck 22.7812 -0.903222 -2.41919
head 9.58905 -0.668458 -0.951767
rclavicle 7.25564e-014 4.77083e-015
rhumerus 1.72123 13.9009 -64.4665
rradius 43.7769
rwrist -14.1971
rhand -42.945 -1.39403
rfingers 7.12502
rthumb -15.8054 -30.7688
lclavicle 7.25564e-014 4.77083e-015
lhumerus 43.8796 -17.1624 59.8258
lradius 71.6916
lwrist 29.4741
lhand -30.8013 3.21283
lfingers 7.12502
lthumb -4.09122 33.1533
rfemur -69.322 -6.12976 15.1149
rtibia 83.9539
rfoot -23.8529 19.4703
rtoes -12.0761
lfemur 21.4599 -18.751 -11.0434
ltibia 23.1635
lfoot -1.75717 23.64
ltoes 4.37354
296
root 2.6323 16.7675 22.5012 19.5473 27.1124 5.1971
lowerback 11.296 -3.44649 -2.79663
upperback -1.25994 -4.79201 2.47161
thorax -7.22656 -2.17277 5.01317
lowerneck -14.503 -1.14552 -0.0469361
upperneck 22.8424 -0.875055 -2.66099
head 9.60296 -0.688396 -1.01984
rclavicle -4.90998e-014 1.59028e-015
rhumerus 2.11298 12.8409 -65.2467
rradius 43.3182
rwrist -13.9821
rhand -43.2074 -1.44094
rfingers 7.12502
rthumb -16.0581 -30.7955
lclavicle -4.90998e-014 1.59028e-015
lhumerus 44.3702 -17.68 60.7805
lradius 71.2659
lwrist 29.7821
lhand -31.1609 3.38141
lfingers 7.12502
lthumb -4.43854 33.3149
rfemur -67.9156 -5.83184 15.5342
rtibia 83.1452
rfoot -24.5335 18.9946
rtoes -12.5321
lfemur 19.4018 -17.8803 -10.6176
ltibia 27.4539
lfoot -1.2493 21.4946
ltoes 3.99279
297
root 2.60011 16.8681 22.8436 19.1752 27.2964 5.05699
lowerback 11.5116 -3.40101 -2.68057
upperback -1.20973 -4.72049 2.43476
thorax -7.31484 -2.14013 4.91263
lowerneck -14.473 -1.18542 -0.12598
upperneck 22.9334 -0.839997 -2.92926
head 9.62958 -0.708684 -1.09603
rclavicle 1.74931e-014 1.35174e-014
rhumerus 2.45844 11.9593 -65.9977
rradius 42.8706
rwrist -13.7409
rhand -43.4539 -1.49112
rfingers 7.12502
rthumb -16.2954 -30.8264
lclavicle 1.74931e-014 1.35174e-014
lhumerus 44.719 -18.3036 61.7139
lradius 70.9022
lwrist 30.0762
lhand -31.5197 3.52148
lfingers 7.12502
lthumb -4.78496 33.4474
rfemur -66.4848 -5.54236 15.9661
rtibia 82.2813
rfoot -25.1616 18.5264
rtoes -12.9203
lfemur 17.4963 -16.9381 -10.1685
ltibia 31.3917
lfoot -1.01174 19.4263
ltoes 3.52552
298
root 2.56871 16.9686 23.1861 18.8107 27.487 4.89488
lowerback 11.6955 -3.35264 -2.5388
upperback -1.16971 -4.6402 2.40327
thorax -7.39803 -2.10438 4.79941
lowerneck -14.4507 -1.227 -0.220471
upperneck 23.0476 -0.799508 -3.20751
head 9.66628 -0.729155 -1.17294
rclavicle 5.54609e-014 -1.74931e-014
rhumerus 2.75534 11.2594 -66.7177
rradius 42.4353
rwrist -13.4657
rhand -43.6669 -1.55593
rfingers 7.12502
rthumb -16.5005 -30.8743
lclavicle 5.54609e-014 -1.74931e-014
lhumerus 44.936 -19.0237 62.6143
lradius 70.5955
lwrist 30.3351
lhand -31.8619 3.64532
lfingers 7.12502
lthumb -5.11535 33.5636
rfemur -65.0555 -5.26127 16.4097
rtibia 81.3046
rfoot -25.6843 18.0397
rtoes -13.2447
lfemur 15.7678 -15.9206 -9.70297
ltibia 34.8669
lfoot -0.991877 17.4727
ltoes 2.90534
299
root 2.53804 17.0688 23.5288 18.4602 27.6974 4.72118
lowerback 11.8417 -3.30556 -2.37641
upperback -1.1376 -4.55734 2.37759
thorax -7.4692 -2.06861 4.67728
lowerneck -14.4371 -1.26809 -0.315428
upperneck 23.175 -0.751003 -3.50909
head 9.70969 -0.748876 -1.2574
rclavicle 3.37934e-014 -3.4191e-014
rhumerus 3.00793 10.7404 -67.3942
rradius 42.0128
rwrist -13.1684
rhand -43.8261 -1.62561
rfingers 7.12502
rthumb -16.6538 -30.9312
lclavicle 3.37934e-014 -3.4191e-014
lhumerus 45.0355 -19.834 63.4795
lradius 70.3404
lwrist 30.5357
lhand -32.1736 3.75188
lfingers 7.12502
lthumb -5.41632 33.6627
rfemur -63.6398 -5.00617 16.8576
rtibia 80.2801
rfoot -26.1488 17.5694
rtoes -13.5246
lfemur 14.041 -14.8507 -9.23197
ltibia 38.2295
lfoot -1.21685 15.4679
ltoes 2.075
300
root 2.50852 17.2194 23.8983 18.1336 27.9351 4.55641
lowerback 11.9505 -3.26459 -2.21188
upperback -1.11288 -4.48124 2.35593
thorax -7.52569 -2.03675 4.55637
lowerneck -14.4228 -1.30795 -0.404304
upperneck 23.2984 -0.694677 -3.83765
head 9.75192 -0.767659 -1.35152
rclavicle -1.94809e-014 4.45278e-014
rhumerus 3.21103 10.4093 -68.0268
rradius 41.6177
rwrist -12.8876
rhand -43.9339 -1.68609
rfingers 7.12502
rthumb -16.7576 -30.9829
lclavicle -1.94809e-014 4.45278e-014
lhumerus 45.0281 -20.7175 64.303
lradius 70.126
lwrist 30.6582
lhand -32.422 3.84354
lfingers 7.12502
lthumb -5.65615 33.748
rfemur -61.8667 -4.74191 17.3255
rtibia 78.9705
rfoot -26.7081 17.1357
rtoes -13.7724
lfemur 12.3459 -13.7434 -8.79998
ltibia 41.3586
lfoot -1.65413 13.5298
ltoes 1.01677
301
root 2.47879 17.3156 24.2399 17.8368 28.2053 4.41243
lowerback 12.0216 -3.22939 -2.05536
upperback -1.09561 -4.41316 2.3374
thorax -7.56671 -2.00901 4.44181
lowerneck -14.4035 -1.34768 -0.479142
upperneck 23.41 -0.63302 -4.19869
head 9.78934 -0.786449 -1.45873
rclavicle -3.77691e-015 0
rhumerus 3.35919 10.2536 -68.6103
rradius 41.2543
rwrist -12.6361
rhand -43.9842 -1.72807
rfingers 7.12502
rthumb -16.806 -31.0208
lclavicle -3.77691e-015 0
lhumerus 44.9234 -21.6718 65.0914
lradius 69.9472
lwrist 30.6952
lhand -32.5868 3.90926
lfingers 7.12502
lthumb -5.81533 33.8095
rfemur -60.5222 -4.5876 17.7364
rtibia 77.8861
rfoot -27.0464 16.6864
rtoes -13.9835
lfemur 10.5888 -12.6196 -8.38194
ltibia 44.5329
lfoot -2.34685 11.5175
ltoes -0.27238
302
root 2.44924 17.4109 24.5814 17.5721 28.517 4.294
lowerback 12.0585 -3.20355 -1.91005
upperback -1.08565 -4.35843 2.32405
thorax -7.59347 -1.98771 4.33894
lowerneck -14.3816 -1.38627 -0.548952
upperneck 23.5071 -0.564693 -4.58353
head 9.82158 -0.804378 -1.5743
rclavicle -6.75868e-015 -1.59028e-015
rhumerus 3.45118 10.2614 -69.1441
rradius 40.9311
rwrist -12.4296
rhand -43.9691 -1.73805
rfingers 7.12502
rthumb -16.7915 -31.032
lclavicle -6.75868e-015 -1.59028e-015
lhumerus 44.7315 -22.6854 65.848
lradius 69.7915
lwrist 30.6464
lhand -32.6657 3.94899
lfingers 7.12502
lthumb -5.89147 33.8471
rfemur -59.2101 -4.49407 18.121
rtibia 76.7771
rfoot -27.3285 16.2548
rtoes -14.1543
lfemur 8.80523 -11.485 -8.00399
ltibia 47.6079
lfoot -3.26504 9.59211
ltoes -1.78735
